PathFileType	4	(X/Y/Z)	F:\MotionCapture\20160217\3\Generated_files\EMG_test02-Dynamic.trc
DataRate	CameraRate	NumFrames	NumMarkers	Units	OrigDataRate	OrigDataStartFrame	OrigNumFrames
120.00	120.00	       4	39	mm	120.00	170	       679
Frame#	Time	Top.Head			Front.Head			Rear.Head			R.Shoulder			R.Offset			R.Elbow			R.Wrist			L.Shoulder			L.Elbow			L.Wrist			R.ASIS			L.ASIS			V.Sacral			R.Thigh			R.Knee			R.Shank			R.Ankle			R.Heel			R.Toe			L.Thigh			L.Knee			L.Shank			L.Ankle			L.Heel			L.Toe			R1			R2			R3			R4			R5			R6			R7			L1			L2			L3			L4			L5			L6			L7			V_Mid_ASIS			V_Pelvis_Origin			V_R.Hip_JC			V_L.Hip_JC			V_R.Knee_JC			V_L.Knee_JC			V_R.Ankle_JC			V_L.Ankle_JC			V_Mid_Hip			V_Mid_Shoulder			V_R.Hand			V_L.Hand			V_R.Toe_Offset_Static			V_L.Toe_Offset_Static			V_R.Toe_Offset			V_L.Toe_Offset			
		X1	Y1	Z1	X2	Y2	Z2	X3	Y3	Z3	X4	Y4	Z4	X5	Y5	Z5	X6	Y6	Z6	X7	Y7	Z7	X8	Y8	Z8	X9	Y9	Z9	X10	Y10	Z10	X11	Y11	Z11	X12	Y12	Z12	X13	Y13	Z13	X14	Y14	Z14	X15	Y15	Z15	X16	Y16	Z16	X17	Y17	Z17	X18	Y18	Z18	X19	Y19	Z19	X20	Y20	Z20	X21	Y21	Z21	X22	Y22	Z22	X23	Y23	Z23	X24	Y24	Z24	X25	Y25	Z25	X26	Y26	Z26	X27	Y27	Z27	X28	Y28	Z28	X29	Y29	Z29	X30	Y30	Z30	X31	Y31	Z31	X32	Y32	Z32	X33	Y33	Z33	X34	Y34	Z34	X35	Y35	Z35	X36	Y36	Z36	X37	Y37	Z37	X38	Y38	Z38	X39	Y39	Z39	

170	1.408	2616.21436	165.44688	1699.88904	2506.95703	160.64636	1611.95630	2727.27295	163.56380	1635.51892	2684.14209	362.53128	1400.10425	2839.29297	98.31379	1272.59448	2746.16968	495.84073	1095.36377	2555.81128	504.44119	918.84308	2673.79565	-45.17560	1398.96985	2808.39307	-151.91304	1114.85840	2844.38379	-178.25011	860.89783	2699.15161	310.35309	909.20056	2666.82080	25.39014	928.28827	2902.29175	133.37619	945.67883	2755.26147	289.70181	526.66229	2871.38965	326.34003	448.37277	3027.49341	248.86107	268.62463	3190.87085	300.81546	195.11273	3242.50708	232.87772	230.11552	3140.62305	292.10394	59.39283	2556.40186	72.42342	652.00427	2588.55835	23.07161	475.62408	2572.74902	105.96551	337.89392	2624.02173	48.46259	66.48180	2691.52588	102.63618	50.00351	2486.03662	57.27691	50.49397	3106.93457	278.21967	42.92742	3131.01514	254.47298	59.40042	3159.57593	218.42917	141.86105	3209.93335	207.71309	191.23071	3232.01416	276.20990	205.70784							2444.45093	84.23776	49.09705	2476.59692	94.75925	53.13311	2570.60278	137.66063	58.65944	2653.86621	136.01768	51.66639	2665.49194	61.55440	49.94667	2589.84985	37.62616	41.73030	2525.58008	26.10452	46.51950																																																	3086.63696	258.35086	-61.34451	3200.37402	260.73978	94.69518	4057.21021	-236.47641	1638.74438	
171	1.417	2607.26245	164.48573	1702.78540	2497.63379	158.33064	1615.27820	2718.26196	162.50204	1638.18481	2674.56958	360.88910	1403.18616	2828.94604	96.54840	1275.19507	2736.90625	493.97641	1098.69995	2549.19409	503.08044	919.48206	2664.39087	-46.77324	1402.68835	2795.00146	-153.75111	1116.28979	2824.92578	-178.13538	860.29016	2686.74609	308.17703	912.22021	2656.31738	22.87697	930.79431	2891.74341	132.58157	947.77576	2735.66284	290.96152	528.49219	2849.81885	325.89554	447.59552	3009.46411	248.96576	272.10770	3177.98804	299.33594	203.90790	3224.16309	228.93651	241.60362				2550.37451	72.03796	651.25073	2585.96045	22.30031	475.29730	2571.09106	105.83866	337.98553	2624.05566	48.19596	66.42236	2691.69629	102.55215	49.85035	2486.09131	57.10172	50.41463	3102.94604	278.12729	41.32999	3122.12085	256.63562	64.20147				3194.04639	204.32527	201.79118	3217.12720	274.83728	217.42580	3192.28491	312.33704	146.61517	3168.16431	326.81583	83.34669	2444.64429	84.14941	48.91000	2476.79907	94.67249	53.02483	2570.49438	137.38277	58.69682	2654.34766	135.59973	51.65874	2664.95483	61.90602	48.37415	2589.91064	37.59535	41.59929	2525.52612	25.50393	46.37081																																																	3137.96948	323.56107	84.41843	3119.71606	266.00638	107.11146	3394.11523	125.85092	805.88647	
172	1.425	2598.84692	163.13718	1705.81726	2488.30884	156.51068	1619.12793	2709.40991	161.12975	1640.75195	2665.02686	359.22342	1406.41943	2818.74609	94.89133	1277.72681	2727.79858	492.25589	1102.31116	2542.42871	502.81839	919.96899	2653.97656	-47.62838	1405.77881	2781.01025	-154.41344	1117.73010	2805.77295	-178.59210	860.67004	2675.69946	305.79703	915.57343	2647.14331	20.60025	932.97552	2881.24463	131.97079	950.16107	2715.01440	290.97952	531.00818	2828.27368	325.51370	447.03741	2991.85229	247.92041	275.15784	3161.87866	300.33963	214.75204	3204.21851	225.98228	252.18158	3128.51074	292.97018	66.95094	2544.33325	70.67419	651.28815	2582.70776	21.04090	474.94138	2569.69849	104.93189	337.90887	2624.50732	47.47948	66.82262	2691.84424	102.31083	49.86616	2486.20996	56.79130	50.40490	3098.19604	279.14517	40.80415	3115.39185	257.17117	66.04601	3131.80737	217.34503	153.47285	3175.31348	201.83098	209.79115	3200.23389	271.16296	227.62854	3179.88330	311.67371	157.74136	3158.00488	326.69016	92.79442	2444.82544	83.94099	48.95128	2476.58936	94.78573	53.16299	2570.56763	137.20331	58.84153	2654.45166	135.38049	51.78474	2665.21533	62.31219	48.66046	2590.11011	36.02202	40.86525	2525.71143	25.17573	46.27946	
173	1.433	2589.99927	162.79202	1708.68884	2480.34131	156.19518	1622.37390	2700.65015	159.95496	1643.18384	2656.03516	357.43646	1409.40540	2808.76953	93.49659	1280.43604	2718.51758	490.42010	1105.00989	2536.34790	500.86896	919.99915	2644.44678	-48.94071	1408.86365	2766.64795	-155.28108	1118.17480	2786.24097	-178.00328	861.38617	2664.81763	305.06647	918.68567	2636.19458	19.37513	935.64453	2870.78418	131.42448	952.15961	2694.91089	290.39771	533.03754	2806.01929	325.85022	447.63226	2972.16528	247.51068	278.37891	3143.58325	296.32587	220.69667	3182.29785	221.08142	262.13492				2537.62695	70.43088	651.17365	2580.46973	19.99628	474.90561	2567.70996	104.08088	337.25214	2624.67700	47.46973	66.29259	2691.98804	102.23590	49.81095	2486.39087	56.67140	50.39851	3092.65845	281.45782	39.76001	3103.40405	257.80676	68.11749	3115.32007	216.86557	158.92511	3155.91479	199.92163	217.42883	3180.70166	267.78317	237.39046	3166.04834	309.19373	167.81294	3150.44434	325.03174	100.96844	2444.92432	84.86109	49.28330	2476.60229	94.89123	53.03474	2570.58960	137.11060	58.94451	2654.50708	135.28503	51.87495	2665.54077	61.88711	48.66296	2590.24316	37.04413	40.76841	2525.92139	24.57374	45.98669																																																	2506.50366	220.69440	816.75641	3074.17529	-71.96061	-154.94492	3119.49902	279.33191	66.23046	4032.09277	-241.80942	1649.78918	
